<svg width="160" height="160" fill="none" xmlns="http://www.w3.org/2000/svg">
  <path fill="#111" d="M0 0h160v160H0z"/>
  <path d="m66.6667 66.6667 26.6667 26.6667M77.88 77.88c-.2477.2478-.5419.4443-.8656.5784-.3237.1341-.6707.2031-1.0211.2031-.3503 0-.6973-.069-1.021-.2031-.3237-.1341-.6179-.3306-.8656-.5784-.2478-.2477-.4443-.5419-.5784-.8656-.1341-.3237-.2031-.6707-.2031-1.021 0-.3504.069-.6974.2031-1.0211.1341-.3237.3306-.6178.5784-.8656M82 82 72 92m16-12 4 4" stroke="#fff" stroke-width="2" stroke-linecap="round" stroke-linejoin="round"/>
  <path d="M68.7867 68.7867c-.2486.246-.4461.5388-.5811.8614-.135.3227-.2049.6688-.2056 1.0186v18.6666c0 .7073.281 1.3856.781 1.8857.5001.5001 1.1784.781 1.8857.781h18.6666c.7334 0 1.4027-.2933 1.88-.7867M92 84V70.6667c0-.7073-.281-1.3856-.781-1.8857-.5001-.5-1.1784-.781-1.8857-.781H76" stroke="#fff" stroke-width="2" stroke-linecap="round" stroke-linejoin="round"/>
</svg>
